<?xml version="1.0" encoding="utf-8"?>
<!-- Generator: Adobe Illustrator 19.0.0, SVG Export Plug-In . SVG Version: 6.00 Build 0)  -->
<svg version="1.1" id="Layer_1" xmlns="http://www.w3.org/2000/svg" xmlns:xlink="http://www.w3.org/1999/xlink" x="0px" y="0px"
	 width="624.6px" height="265.3px" viewBox="0 0 624.6 265.3" enable-background="new 0 0 624.6 265.3" xml:space="preserve">
<g>
	<path fill="#0079C1" d="M364.6,71.2c-10.5-9.9-24.2-14.9-40.7-14.9c-7.5,0-15,1.7-22.5,5c-5.7,2.5-10.6,5.7-14.7,9.4V59.4h-23.6
		v141.5h23.6v-56.2c4.3,4.1,9.3,7.5,14.9,10.1c7.2,3.3,14.7,5,22.2,5c15.9,0,29.4-5.1,40.2-15.1c10.9-10,16.4-22.3,16.4-36.3
		C380.5,93.6,375.1,81.1,364.6,71.2 M356.3,107.9c0,9.6-3.2,17.2-9.7,23.3c-6.5,6.1-14.9,9.1-25.1,9.1c-9.4,0-17.6-3.2-24.5-9.6
		c-7-6.4-10.3-13.9-10.3-22.9c0-9.3,3.3-16.8,10.2-23c6.8-6.2,15-9.3,24.5-9.3c10.6,0,19.2,3,25.5,9
		C353.2,90.7,356.3,98.3,356.3,107.9"/>
	<path fill="#0079C1" d="M485.4,71.1c-4.3-4.1-9.2-7.4-14.8-9.9c-7.2-3.2-14.6-4.9-22.2-4.9c-15.9,0-29.4,5-40.2,15
		c-10.9,10-16.4,22.2-16.4,36.2c0,14.7,5.3,27.2,15.9,37.2c10.5,9.9,24.2,15,40.7,15c7.5,0,14.9-1.6,22.2-4.9
		c5.6-2.5,10.6-5.7,14.8-9.6v11.3h23.6V59.4h-23.6V71.1z M485.4,107.9c0,9.3-3.3,16.8-10.1,23.1c-6.8,6.2-14.9,9.4-24.3,9.4
		c-10.6,0-19.1-3.1-25.5-9.1c-6.4-6.1-9.5-13.7-9.5-23.4c0-9.6,3.1-17.2,9.6-23.2c6.4-6,14.8-9,25-9c9.4,0,17.6,3.2,24.6,9.5
		C482,91.5,485.4,98.9,485.4,107.9"/>
	<path fill="#0079C1" d="M614.2,66.3c-6.8-6.6-16.5-10-28.5-10c-11.9,0-23,4.1-33,12.2V7.6h-23.6v149h23.6V91.3
		c9.1-10.4,18.6-15.7,28.3-15.7c7,0,12.1,1.7,15.2,4.9c3.1,3.3,4.7,8.8,4.7,16.3v59.8h23.6V92.6C624.6,81.8,621.1,72.9,614.2,66.3"
		/>
	<path fill="#0079C1" d="M19.2,200.2l-16.1,8.3c-1.8,1-3.1,2.9-3.1,5.1c0,3.2,2.6,5.7,5.7,5.7c2.2,0,4.1-1.3,5.1-3.1L19.2,200.2z"/>
	<path fill="#0079C1" d="M217.2,212.5l-10.1-5.3l5.3,10.2c0.6,1.2,1.8,2,3.2,2c2,0,3.7-1.6,3.7-3.7
		C219.3,214.3,218.4,213.1,217.2,212.5"/>
	<path fill="#0079C1" d="M31.4,31.4L17.8,5.3c-1.6-3-4.7-5.1-8.4-5.1c-5.2,0-9.4,4.2-9.4,9.4c0,3.5,1.9,6.6,4.8,8.2l0,0L31.4,31.4z"
		/>
	<path fill="#0079C1" d="M217.7,0.2c-0.8,0-1.4,0.4-1.8,1l-3.1,6l5.9-3.1c0.6-0.4,1.1-1,1.1-1.8C219.8,1.1,218.8,0.2,217.7,0.2"/>
	<path fill="#0079C1" d="M219.3,83.5c0-46.1-37.4-83.5-83.5-83.5c-25.7,0-47,18.5-51.4,42.9C78,38,70.1,35.1,61.5,35.1
		C27.6,35.1,0,63.6,0,98.7c0,48.8,32.8,89.7,76.9,100.5c3.2,0.8,7,2.3,10.4,3.9c1.9,0.9,2.9,3.6,1.2,5.7c0,0,0,0,0,0
		c-0.9,1.1-1.4,2.5-1.4,4c0,3.4,2.6,6.1,5.9,6.1c0.3,0,0.6,0,0.9-0.1C164,213.6,219.3,155,219.3,83.5 M135,178.2
		C111,145.4,96.8,104.8,96.8,60.9h0c0-21.6,17-39.1,37.9-39.1c33.5,0,60.7,28,60.7,62.6C195.4,126.6,170.5,162.8,135,178.2
		L135,178.2z"/>
	<path fill="#0079C1" d="M273.4,253.7c-1.5,1.1-3.3,1.1-5.6,1.1H267h-1.3v10h-2.6v-22.2h3.9h0.7c2.3,0,4.1,0.1,5.6,1.1
		c1.4,1,2.3,2.8,2.3,5C275.6,250.8,274.8,252.7,273.4,253.7 M267,245h-1.3v7.4h1.3c3.8,0,5.7-0.5,5.7-3.6
		C272.8,245.6,270.9,245,267,245"/>
	<path fill="#0079C1" d="M288.7,263.1c-1.5,1.4-3.3,2.2-5.3,2.2c-2,0-3.9-0.8-5.3-2.2c-1.5-1.5-2.2-3.3-2.2-5.3c0-2,0.7-3.9,2.2-5.3
		c1.4-1.4,3.3-2.2,5.3-2.2s3.9,0.8,5.3,2.2c1.4,1.4,2.2,3.3,2.2,5.3C290.9,259.9,290.1,261.7,288.7,263.1 M283.3,252.6
		c-2.8,0-5,2.3-5,5.3c0,3,2.3,5.2,5,5.2c2.8,0,5-2.3,5-5.2C288.3,254.9,286.1,252.6,283.3,252.6"/>
	<rect x="294.7" y="241.2" fill="#0079C1" width="2.4" height="23.5"/>
	<path fill="#0079C1" d="M303.4,245.9c-1,0-1.7-0.7-1.7-1.7c0-1,0.8-1.7,1.7-1.7c1,0,1.7,0.8,1.7,1.8S304.4,245.9,303.4,245.9
		 M302.2,250.9h2.4v13.9h-2.4V250.9z"/>
	<path fill="#0079C1" d="M313.6,265.3c-2.6,0-4.4-1-5.5-2.9l2-1.4c0.8,1.5,2,2.2,3.5,2.2c1.6,0,2.6-0.9,2.6-2.1
		c0-1.1-0.7-1.6-2.2-2.1c-3.4-1.2-5.5-1.8-5.5-4.5c0-2.4,2-4.2,4.9-4.2c2.4,0,4.2,1,4.9,2.8l-1.9,1.2c-0.6-1.3-1.7-2-3.2-2
		c-1.4,0-2.4,0.9-2.4,2.1c0,1.5,1.3,1.6,3.6,2.4c2.7,0.9,4,1.9,4,4.1C318.7,263.5,316.7,265.3,313.6,265.3"/>
	<path fill="#0079C1" d="M332.4,264.7v-8.2c0-2.8-1.1-4.2-3.6-4.2c-1.4,0-2.6,0.5-3.4,1.5c-0.8,1-0.8,2.1-0.8,3.7v7.2h-2.4v-23.5
		h2.3V253c1.2-1.8,2.9-2.6,5.1-2.6c3.2,0,5.2,1.8,5.2,4.9v9.4H332.4z"/>
	<polygon fill="#0079C1" points="363.4,264.7 363.4,253.6 351.6,253.6 351.6,264.7 349,264.7 349,242.5 351.6,242.5 351.6,251.1 
		363.4,251.1 363.4,242.5 366.1,242.5 366.1,264.7 	"/>
	<path fill="#0079C1" d="M377.2,265.3c-4.1,0-6.3-2.2-6.3-6.4v-8.1h2.5v6.8c0,3.7,0.8,5.4,3.9,5.4c3,0,3.9-1.7,3.9-5.4v-6.8h2.4v8.1
		C383.5,263.2,381.4,265.3,377.2,265.3"/>
	<path fill="#0079C1" d="M407.5,264.7v-8.2c0-2.8-1.1-4.2-3.4-4.2c-1.3,0-2.4,0.5-3.1,1.5c-0.7,1-0.8,2.1-0.8,3.7v7.2h-2.3v-8.2
		c0-2.8-1.1-4.2-3.4-4.2c-1.3,0-2.4,0.5-3.2,1.5c-0.7,1-0.7,2.1-0.7,3.7v7.2h-2.3v-13.9h2.3v2.1c1.1-1.8,2.7-2.6,4.8-2.6
		c2.2,0,3.9,1,4.7,2.8c1.2-1.9,2.8-2.8,4.9-2.8c3.1,0,4.9,1.8,4.9,4.9v9.4H407.5z"/>
	<path fill="#0079C1" d="M425.1,264.7v-2.5c-1.1,2-2.9,3.1-5,3.1c-4,0-6.6-3-6.6-7.5c0-4.7,2.6-7.5,6.5-7.5c2.3,0,4,1.1,5.1,3.1
		v-2.6h2.4v13.9H425.1z M420.5,252.7c-2.9,0-4.5,1.8-4.5,5c0,3.4,1.7,5.3,4.6,5.3c2.8,0,4.5-1.8,4.5-5
		C425.1,254.7,423.1,252.7,420.5,252.7"/>
	<path fill="#0079C1" d="M442.3,264.7v-8.2c0-2.8-1.2-4.2-3.6-4.2c-1.4,0-2.6,0.5-3.4,1.5c-0.8,1-0.8,2.1-0.8,3.7v7.2h-2.4v-13.9
		h2.3v2.1c1.2-1.8,2.9-2.6,5.1-2.6c3.2,0,5.2,1.8,5.2,4.9v9.4H442.3z"/>
	<path fill="#0079C1" d="M450.8,245.9c-1,0-1.7-0.7-1.7-1.7c0-1,0.8-1.7,1.7-1.7c1,0,1.7,0.8,1.7,1.8S451.7,245.9,450.8,245.9
		 M449.6,250.9h2.4v13.9h-2.4V250.9z"/>
	<polygon fill="#0079C1" points="459.8,252.8 459.8,264.7 457.3,264.7 457.3,252.8 454.8,252.8 454.8,250.9 457.3,250.9 
		457.3,245.3 459.8,245.3 459.8,250.9 462.3,250.9 462.3,252.8 	"/>
	<path fill="#0079C1" d="M475.6,264.7v-2.5c-1.1,2-2.9,3.1-5,3.1c-4,0-6.6-3-6.6-7.5c0-4.7,2.6-7.5,6.5-7.5c2.3,0,4,1.1,5.1,3.1
		v-2.6h2.4v13.9H475.6z M471,252.7c-2.9,0-4.5,1.8-4.5,5c0,3.4,1.7,5.3,4.6,5.3c2.8,0,4.5-1.8,4.5-5
		C475.6,254.7,473.7,252.7,471,252.7"/>
	<path fill="#0079C1" d="M490.3,252.8c-0.5-0.2-1-0.3-1.5-0.3c-2.5,0-3.8,1.8-3.8,5.4v6.8h-2.4v-13.9h2.1v2.9
		c1.2-2.4,2.5-3.4,4.7-3.4c0.6,0,1.1,0.1,1.6,0.3L490.3,252.8z"/>
	<path fill="#0079C1" d="M494.9,245.9c-1,0-1.7-0.7-1.7-1.7c0-1,0.8-1.7,1.7-1.7s1.7,0.8,1.7,1.8S495.9,245.9,494.9,245.9
		 M493.7,250.9h2.4v13.9h-2.4V250.9z"/>
	<path fill="#0079C1" d="M511.7,264.7v-2.5c-1.1,2-2.9,3.1-5,3.1c-4,0-6.6-3-6.6-7.5c0-4.7,2.6-7.5,6.5-7.5c2.3,0,4,1.1,5.1,3.1
		v-2.6h2.4v13.9H511.7z M507.1,252.7c-2.9,0-4.5,1.8-4.5,5c0,3.4,1.7,5.3,4.6,5.3c2.8,0,4.5-1.8,4.5-5
		C511.7,254.7,509.8,252.7,507.1,252.7"/>
	<path fill="#0079C1" d="M529,264.7v-8.2c0-2.8-1.2-4.2-3.6-4.2c-1.4,0-2.6,0.5-3.4,1.5c-0.8,1-0.8,2.1-0.8,3.7v7.2h-2.4v-13.9h2.3
		v2.1c1.2-1.8,2.9-2.6,5.1-2.6c3.2,0,5.2,1.8,5.2,4.9v9.4H529z"/>
	<path fill="#0079C1" d="M559.8,264.7l-2.9-6.8h-8.7l-2.9,6.8h-2.9l10.1-23.1l10.1,23.1H559.8z M552.5,247.5l-3.5,8.2h7.1
		L552.5,247.5z"/>
	<path fill="#0079C1" d="M570.7,265.3c-4.3,0-7.1-3-7.1-7.4c0-4.5,3.1-7.6,7.2-7.6c1.6,0,3,0.3,4.3,1v2.5c-1.2-0.8-2.5-1.2-3.9-1.2
		c-3,0-5.2,2.1-5.2,5.3c0,2.8,2.1,5,5,5c1.5,0,2.8-0.5,4.3-1.6v2.8C574.1,265,572.5,265.3,570.7,265.3"/>
	<polygon fill="#0079C1" points="581.4,252.8 581.4,264.7 579,264.7 579,252.8 576.4,252.8 576.4,250.9 579,250.9 579,245.3 
		581.4,245.3 581.4,250.9 584,250.9 584,252.8 	"/>
	<path fill="#0079C1" d="M588,245.9c-1,0-1.7-0.7-1.7-1.7c0-1,0.8-1.7,1.7-1.7c1,0,1.7,0.8,1.7,1.8S588.9,245.9,588,245.9
		 M586.8,250.9h2.4v13.9h-2.4V250.9z"/>
	<path fill="#0079C1" d="M606,263.1c-1.5,1.4-3.3,2.2-5.3,2.2c-2.1,0-3.9-0.8-5.3-2.2c-1.5-1.5-2.2-3.3-2.2-5.3c0-2,0.7-3.9,2.2-5.3
		c1.4-1.4,3.3-2.2,5.3-2.2s3.9,0.8,5.3,2.2c1.4,1.4,2.2,3.3,2.2,5.3C608.2,259.9,607.4,261.7,606,263.1 M600.6,252.6
		c-2.8,0-5,2.3-5,5.3c0,3,2.3,5.2,5,5.2c2.8,0,5-2.3,5-5.2C605.6,254.9,603.4,252.6,600.6,252.6"/>
	<path fill="#0079C1" d="M622.1,264.7v-8.2c0-2.8-1.2-4.2-3.6-4.2c-1.4,0-2.6,0.5-3.4,1.5c-0.8,1-0.8,2.1-0.8,3.7v7.2h-2.4v-13.9
		h2.3v2.1c1.2-1.8,2.9-2.6,5.1-2.6c3.2,0,5.2,1.8,5.2,4.9v9.4H622.1z"/>
</g>
</svg>
