<svg width="0" height="0">
    <symbol viewBox="0 0 16 16" xmlns="http://www.w3.org/2000/svg" id="fail">
        <path fill-rule="evenodd" d="M16 8A8 8 0 1 1 0 8a8 8 0 0 1 16 0zM8 4a.905.905 0 0 0-.9.995l.35 3.507a.552.552 0 0 0 1.1 0l.35-3.507A.905.905 0 0 0 8 4zm.002 6a1 1 0 1 0 0 2 1 1 0 0 0 0-2z"></path>
    </symbol>
    <symbol viewBox="0 0 16 16" xmlns="http://www.w3.org/2000/svg" id="success">
        <path fill-rule="evenodd" d="M15.354 2.646a.5.5 0 0 1 0 .708l-7 7a.5.5 0 0 1-.708 0l-3-3a.5.5 0 1 1 .708-.708L8 9.293l6.646-6.647a.5.5 0 0 1 .708 0z"></path>
        <path fill-rule="evenodd" d="M8 2.5A5.5 5.5 0 1 0 13.5 8a.5.5 0 0 1 1 0 6.5 6.5 0 1 1-3.25-5.63.5.5 0 1 1-.5.865A5.472 5.472 0 0 0 8 2.5z"></path>
    </symbol>
    <symbol viewBox="0 0 16 16" xmlns="http://www.w3.org/2000/svg" id="sync">
        <path fill-rule="evenodd" d="M8 3a5 5 0 1 0 4.546 2.914.5.5 0 0 1 .908-.417A6 6 0 1 1 8 2v1z"></path>
        <path d="M8 4.466V.534a.25.25 0 0 1 .41-.192l2.36 1.966c.12.1.12.284 0 .384L8.41 4.658A.25.25 0 0 1 8 4.466z"></path>
    </symbol>
    <symbol xmlns="http://www.w3.org/2000/svg" viewBox="0 0 512 512" id="sync-alt">
        <path fill="currentColor" d="M370.72 133.28C339.458 104.008 298.888 87.962 255.848 88c-77.458.068-144.328 53.178-162.791 126.85-1.344 5.363-6.122 9.15-11.651 9.15H24.103c-7.498 0-13.194-6.807-11.807-14.176C33.933 94.924 134.813 8 256 8c66.448 0 126.791 26.136 171.315 68.685L463.03 40.97C478.149 25.851 504 36.559 504 57.941V192c0 13.255-10.745 24-24 24H345.941c-21.382 0-32.09-25.851-16.971-40.971l41.75-41.749zM32 296h134.059c21.382 0 32.09 25.851 16.971 40.971l-41.75 41.75c31.262 29.273 71.835 45.319 114.876 45.28 77.418-.07 144.315-53.144 162.787-126.849 1.344-5.363 6.122-9.15 11.651-9.15h57.304c7.498 0 13.194 6.807 11.807 14.176C478.067 417.076 377.187 504 256 504c-66.448 0-126.791-26.136-171.315-68.685L48.97 471.03C33.851 486.149 8 475.441 8 454.059V320c0-13.255 10.745-24 24-24z"></path>
    </symbol>
</svg>
