<svg id="Isolation_Mode" data-name="Isolation Mode" xmlns="http://www.w3.org/2000/svg" viewBox="0 0 180.13 77.16"><defs><style>.cls-1{fill:#006ab5;}</style></defs><title>logo</title><path class="cls-1" d="M417.9,157.37a16.56,16.56,0,0,0-11.74-4.29,16,16,0,0,0-6.49,1.44,15.54,15.54,0,0,0-4.23,2.71V154h-6.8v40.8h6.8V178.57a15.86,15.86,0,0,0,10.72,4.33,16.55,16.55,0,0,0,11.6-4.35,13.82,13.82,0,0,0,4.73-10.48,14.13,14.13,0,0,0-4.6-10.71M415.53,168a8.74,8.74,0,0,1-2.79,6.73,10.85,10.85,0,0,1-14.32-.13,8.87,8.87,0,0,1-.05-13.22,10.2,10.2,0,0,1,7.07-2.68,10.32,10.32,0,0,1,7.35,2.6,8.73,8.73,0,0,1,2.74,6.7" transform="translate(-312.76 -136.84)"/><path class="cls-1" d="M452.73,157.34a14.94,14.94,0,0,0-4.26-2.86,15.51,15.51,0,0,0-6.39-1.4,16.56,16.56,0,0,0-11.59,4.32,13.75,13.75,0,0,0-4.72,10.45,14.24,14.24,0,0,0,4.58,10.73,16.44,16.44,0,0,0,11.73,4.32,16.24,16.24,0,0,0,10.65-4.16V182h6.8V154h-6.8m0,14a8.61,8.61,0,0,1-2.92,6.66,10,10,0,0,1-7,2.71,10.25,10.25,0,0,1-7.35-2.63,8.82,8.82,0,0,1-2.74-6.73,8.7,8.7,0,0,1,2.76-6.7,10.89,10.89,0,0,1,14.29.14,8.5,8.5,0,0,1,3,6.57" transform="translate(-312.76 -136.84)"/><path class="cls-1" d="M489.9,156c-2-1.91-4.74-2.88-8.23-2.88a14.81,14.81,0,0,0-9.5,3.51V139h-6.8v43h6.8V163.18c2.61-3,5.35-4.52,8.16-4.52a5.89,5.89,0,0,1,4.39,1.42c0.91,0.95,1.37,2.53,1.37,4.7V182h6.8V163.54a10.11,10.11,0,0,0-3-7.58" transform="translate(-312.76 -136.84)"/><path class="cls-1" d="M318.3,194.59L313.67,197a1.66,1.66,0,1,0,2.23,2.24" transform="translate(-312.76 -136.84)"/><path class="cls-1" d="M375.4,198.12l-2.92-1.52,1.52,2.95a1.05,1.05,0,1,0,1.4-1.42" transform="translate(-312.76 -136.84)"/><path class="cls-1" d="M321.8,145.9l-3.9-7.54a2.71,2.71,0,1,0-3.74,3.59h0" transform="translate(-312.76 -136.84)"/><path class="cls-1" d="M375.54,136.89a0.6,0.6,0,0,0-.52.3l-0.9,1.73,1.72-.9a0.6,0.6,0,0,0-.3-1.12" transform="translate(-312.76 -136.84)"/><path class="cls-1" d="M376,160.93a24.09,24.09,0,0,0-24.08-24.08,15.06,15.06,0,0,0-14.82,12.38,10.81,10.81,0,0,0-6.6-2.25c-9.8,0-17.75,8.21-17.75,18.33,0,14.08,9.47,25.88,22.19,29a16.12,16.12,0,0,1,3,1.13,1.06,1.06,0,0,1,.34,1.64h0a1.79,1.79,0,0,0-.42,1.15,1.73,1.73,0,0,0,1.7,1.76l0.25,0a39.14,39.14,0,0,0,36.19-39M351.7,188.25a57.13,57.13,0,0,1-11-33.84h0a11.12,11.12,0,0,1,10.93-11.29c9.66,0,17.49,8.09,17.49,18.06a29.39,29.39,0,0,1-17.4,27.07h0Z" transform="translate(-312.76 -136.84)"/><path class="cls-1" d="M391.69,208.72A2.74,2.74,0,0,1,390,209h-0.62v3h-0.76v-6.57H390a2.75,2.75,0,0,1,1.65.33,2,2,0,0,1,0,3m-1.88-2.57h-0.4v2.2h0.4c1.13,0,1.7-.15,1.7-1.06s-0.56-1.14-1.7-1.14" transform="translate(-312.76 -136.84)"/><path class="cls-1" d="M396.22,211.51a2.24,2.24,0,0,1-1.58.66,2.2,2.2,0,0,1-1.58-.65,2.21,2.21,0,0,1,0-3.13,2.19,2.19,0,0,1,1.58-.64,2.22,2.22,0,0,1,1.58.65,2.19,2.19,0,0,1,0,3.12m-1.58-3.11a1.56,1.56,0,1,0,1.48,1.55,1.51,1.51,0,0,0-1.48-1.55" transform="translate(-312.76 -136.84)"/><polyline class="cls-1" points="85.24 75.16 85.96 75.16 85.96 68.2 85.24 68.2"/><path class="cls-1" d="M401.38,212.17a1.69,1.69,0,0,1-1.62-.86l0.6-.4a1.11,1.11,0,0,0,1,.65,0.67,0.67,0,0,0,.77-0.62,0.7,0.7,0,0,0-.64-0.62c-1-.35-1.62-0.52-1.62-1.33a1.3,1.3,0,0,1,1.45-1.24,1.47,1.47,0,0,1,1.46.82l-0.57.35a1,1,0,0,0-.94-0.59,0.63,0.63,0,0,0-.7.62c0,0.43.38,0.49,1.06,0.71s1.2,0.55,1.2,1.22a1.34,1.34,0,0,1-1.5,1.31" transform="translate(-312.76 -136.84)"/><polyline class="cls-1" points="94 75.16 91.89 72.99 91.89 75.16 91.18 75.16 91.18 68.2 91.89 68.2 91.89 72.91 93.87 71.05 94.81 71.05 92.75 72.93 94.99 75.16"/><path class="cls-1" d="M411.61,212v-0.74a1.65,1.65,0,0,1-1.49.92,2,2,0,0,1-2-2.22,2,2,0,0,1,1.93-2.22,1.59,1.59,0,0,1,1.51.92v-0.77h0.7V212m-2-3.56a1.29,1.29,0,0,0-1.34,1.48,1.33,1.33,0,0,0,1.37,1.55,1.3,1.3,0,0,0,1.34-1.49,1.38,1.38,0,0,0-1.37-1.54" transform="translate(-312.76 -136.84)"/><path class="cls-1" d="M420.7,212l-0.85-2h-2.57l-0.85,2h-0.85l3-6.83,3,6.83m-3-5.1-1,2.42h2.1Z" transform="translate(-312.76 -136.84)"/><polyline class="cls-1" points="112.23 75.16 110.11 72.99 110.11 75.16 109.41 75.16 109.41 68.2 110.11 68.2 110.11 72.91 112.09 71.05 113.03 71.05 110.98 72.93 113.21 75.16"/><path class="cls-1" d="M428.46,212.17a2,2,0,0,1-2.11-2.19,2.1,2.1,0,0,1,2.14-2.24,2.93,2.93,0,0,1,1.28.29v0.75a2.06,2.06,0,0,0-1.14-.36,1.54,1.54,0,0,0-.05,3.07,2.11,2.11,0,0,0,1.27-.47v0.82a2.71,2.71,0,0,1-1.38.33" transform="translate(-312.76 -136.84)"/><path class="cls-1" d="M431.2,206.43a0.51,0.51,0,0,1-.51-0.51,0.51,0.51,0,0,1,.51-0.51,0.52,0.52,0,0,1,.51.52,0.51,0.51,0,0,1-.51.51m-0.35,1.46h0.71V214h-0.71v-6.11Z" transform="translate(-312.76 -136.84)"/><path class="cls-1" d="M436.18,212v-0.74a1.65,1.65,0,0,1-1.49.92,2,2,0,0,1-2-2.22,2,2,0,0,1,1.93-2.22,1.59,1.59,0,0,1,1.51.92v-0.77h0.7V212m-2-3.56a1.29,1.29,0,0,0-1.34,1.48,1.33,1.33,0,0,0,1.37,1.55,1.3,1.3,0,0,0,1.34-1.49,1.38,1.38,0,0,0-1.37-1.54" transform="translate(-312.76 -136.84)"/><polyline class="cls-1" points="132.57 75.16 132.57 71.86 129.08 71.86 129.08 75.16 128.3 75.16 128.3 68.58 129.08 68.58 129.08 71.11 132.57 71.11 132.57 68.58 133.37 68.58 133.37 75.16"/><path class="cls-1" d="M449.42,212.17a1.68,1.68,0,0,1-1.87-1.88v-2.4h0.74v2c0,1.08.25,1.59,1.15,1.59s1.14-.51,1.14-1.59v-2h0.72v2.4a1.68,1.68,0,0,1-1.88,1.88" transform="translate(-312.76 -136.84)"/><path class="cls-1" d="M458.37,212v-2.42a1,1,0,0,0-1-1.23,1.15,1.15,0,0,0-.93.44,1.66,1.66,0,0,0-.23,1.08V212h-0.68v-2.42a1,1,0,0,0-1-1.23,1.16,1.16,0,0,0-.94.44,1.66,1.66,0,0,0-.22,1.08V212h-0.68v-4.11h0.69v0.63a1.6,1.6,0,0,1,1.43-.78,1.38,1.38,0,0,1,1.38.84,1.62,1.62,0,0,1,1.46-.84,1.34,1.34,0,0,1,1.46,1.46V212" transform="translate(-312.76 -136.84)"/><path class="cls-1" d="M463.59,212v-0.74a1.65,1.65,0,0,1-1.49.92,2,2,0,0,1-2-2.22,2,2,0,0,1,1.93-2.22,1.59,1.59,0,0,1,1.51.92v-0.77h0.7V212m-2-3.56a1.29,1.29,0,0,0-1.34,1.48,1.33,1.33,0,0,0,1.37,1.55,1.3,1.3,0,0,0,1.34-1.49,1.38,1.38,0,0,0-1.37-1.54" transform="translate(-312.76 -136.84)"/><path class="cls-1" d="M468.7,212v-2.42a1,1,0,0,0-1.08-1.23,1.26,1.26,0,0,0-1,.44,1.59,1.59,0,0,0-.24,1.08V212h-0.7v-4.11h0.69v0.63a1.69,1.69,0,0,1,1.5-.78,1.38,1.38,0,0,1,1.54,1.46V212" transform="translate(-312.76 -136.84)"/><path class="cls-1" d="M471.19,206.43a0.51,0.51,0,0,1-.52-0.51,0.51,0.51,0,0,1,.52-0.51,0.52,0.52,0,0,1,.51.52,0.51,0.51,0,0,1-.51.51m-0.35,1.46h0.71V212h-0.71v-4.11Z" transform="translate(-312.76 -136.84)"/><polyline class="cls-1" points="161.09 71.63 161.09 75.16 160.38 75.16 160.38 71.63 159.62 71.63 159.62 71.05 160.38 71.05 160.38 69.39 161.09 69.39 161.09 71.05 161.85 71.05 161.85 71.63"/><path class="cls-1" d="M478.55,212v-0.74a1.65,1.65,0,0,1-1.49.92,2,2,0,0,1-2-2.22,2,2,0,0,1,1.93-2.22,1.59,1.59,0,0,1,1.51.92v-0.77h0.7V212m-2-3.56a1.29,1.29,0,0,0-1.34,1.48,1.33,1.33,0,0,0,1.37,1.55,1.3,1.3,0,0,0,1.34-1.49,1.38,1.38,0,0,0-1.37-1.54" transform="translate(-312.76 -136.84)"/><path class="cls-1" d="M482.89,208.47a1.33,1.33,0,0,0-.43-0.08c-0.74,0-1.11.53-1.11,1.61v2h-0.7v-4.11h0.63v0.85a1.47,1.47,0,0,1,1.38-1,1.41,1.41,0,0,1,.48.08" transform="translate(-312.76 -136.84)"/><path class="cls-1" d="M486.88,212v-2.42a1,1,0,0,0-1.08-1.23,1.26,1.26,0,0,0-1,.44,1.59,1.59,0,0,0-.24,1.08V212h-0.7v-4.11h0.69v0.63a1.69,1.69,0,0,1,1.5-.78,1.38,1.38,0,0,1,1.54,1.46V212" transform="translate(-312.76 -136.84)"/><path class="cls-1" d="M492.13,212v-0.74a1.65,1.65,0,0,1-1.49.92,2,2,0,0,1-2-2.22,2,2,0,0,1,1.93-2.22,1.59,1.59,0,0,1,1.51.92v-0.77h0.7V212m-2-3.56a1.29,1.29,0,0,0-1.34,1.48,1.33,1.33,0,0,0,1.37,1.55,1.3,1.3,0,0,0,1.34-1.49,1.38,1.38,0,0,0-1.37-1.54" transform="translate(-312.76 -136.84)"/></svg>